<svg width="890" height="380" viewBox="0 0 890 380" fill="none" xmlns="http://www.w3.org/2000/svg">
<path d="M889.611 72.944C889.393 70.5603 888.673 68.2494 887.497 66.1642C887.14 65.5066 886.605 64.9634 885.953 64.5958C885.301 64.2282 884.559 64.0514 883.811 64.0862H883.84H859.791L859.825 41.9777V41.7779C859.8 40.9629 859.58 40.1655 859.184 39.4525C858.788 38.7395 858.228 38.1318 857.549 37.679C855.602 36.2991 853.391 35.334 851.055 34.8449C844.521 33.3004 837.753 33.0074 831.11 33.9815C827.674 34.2941 824.343 35.3311 821.337 37.0242C820.388 37.5371 819.604 38.3072 819.075 39.2457C818.545 40.1841 818.291 41.2535 818.342 42.3297V42.2866L818.404 64.0862H801.988C801.422 64.1043 800.868 64.2575 800.373 64.5324C799.878 64.8073 799.455 65.196 799.14 65.6669C798.181 67.018 797.511 68.552 797.172 70.1733C796.099 76.7509 795.897 83.4414 796.572 90.0717C796.79 92.4552 797.51 94.766 798.686 96.8515C799.043 97.5091 799.578 98.0524 800.23 98.4199C800.882 98.7875 801.625 98.9643 802.373 98.9295H818.456L818.508 157.783V205.37C818.508 207.133 818.559 208.887 818.689 210.65C819.025 216.351 821.125 221.807 824.697 226.264C828.269 230.722 833.138 233.962 838.632 235.536C845.289 237.494 852.298 237.953 859.154 236.882C865.113 236.074 870.905 234.321 876.311 231.689C876.939 231.382 877.409 231.126 877.272 230.196C876.19 222.829 875.178 215.45 874.146 208.073C873.816 205.709 872.943 205.125 870.49 205.527C869.157 205.781 867.801 205.895 866.444 205.868C864.953 205.963 863.482 205.491 862.325 204.548C861.168 203.604 860.411 202.259 860.204 200.781C859.776 198.792 859.603 196.757 859.688 194.724L859.759 98.926H884.192C884.758 98.9082 885.312 98.7556 885.808 98.4807C886.303 98.2057 886.726 97.8163 887.04 97.3453C888.001 95.995 888.671 94.4607 889.008 92.8389C890.083 86.2626 890.286 79.5732 889.611 72.944V72.944Z" fill="white"/>
<path d="M574.306 108.336V41.0153C574.281 40.2002 574.061 39.403 573.665 38.69C573.269 37.9769 572.708 37.3689 572.029 36.9165C570.082 35.5364 567.872 34.5713 565.536 34.0824C559.001 32.5383 552.232 32.2453 545.588 33.2189C542.152 33.5322 538.821 34.5692 535.815 36.2616C534.867 36.7749 534.083 37.5447 533.554 38.4831C533.024 39.4215 532.77 40.4901 532.821 41.5663V41.5232V229.76V229.96C532.846 230.775 533.066 231.573 533.462 232.286C533.858 232.999 534.419 233.607 535.097 234.06C537.044 235.44 539.255 236.405 541.591 236.893C548.125 238.437 554.893 238.73 561.536 237.758C564.973 237.444 568.303 236.407 571.31 234.715C572.257 234.201 573.041 233.431 573.57 232.492C574.1 231.553 574.354 230.484 574.304 229.408V221.495C578.869 226.68 584.378 230.951 590.539 234.079C595.885 236.823 601.797 238.289 607.807 238.362C614.781 238.348 621.661 236.751 627.927 233.691C634.618 230.418 640.545 225.777 645.324 220.068C650.721 213.582 654.859 206.146 657.527 198.143C660.695 188.609 662.232 178.608 662.072 168.563C662.177 159.49 660.997 150.448 658.566 141.705C656.538 134.288 653.101 127.33 648.441 121.212C644.103 115.554 638.493 110.996 632.064 107.908C625.636 104.82 618.569 103.288 611.438 103.437C605.313 103.452 599.257 104.733 593.65 107.199C587.706 109.802 582.223 113.351 577.416 117.708L574.3 120.562V117.858L574.306 108.336ZM615.847 198.274C611.17 204.244 605.544 207.229 598.968 207.226C595.515 207.197 592.091 206.583 588.843 205.411C584.983 203.958 581.451 201.752 578.453 198.922V146.251C585.548 138.464 592.905 134.571 600.525 134.573C615.411 134.573 622.856 146.162 622.858 169.34C622.862 182.665 620.527 192.308 615.852 198.271L615.847 198.274Z" fill="white"/>
<path d="M782.779 116.448C776.87 110.611 769.851 106.014 762.137 102.929C754.427 99.8185 746.187 98.2278 737.872 98.2433C729.513 98.2349 721.229 99.8251 713.469 102.929C705.701 105.988 698.633 110.587 692.69 116.448C686.478 122.68 681.598 130.11 678.348 138.285C671.195 157.374 671.195 178.406 678.348 197.495C681.596 205.672 686.476 213.101 692.69 219.333C698.629 225.202 705.697 229.808 713.467 232.87C721.228 235.974 729.511 237.564 737.87 237.556C746.185 237.571 754.425 235.981 762.135 232.87C769.852 229.784 776.871 225.182 782.777 219.338C788.989 213.104 793.87 205.675 797.123 197.5C804.271 178.41 804.271 157.381 797.123 138.29C793.869 130.115 788.989 122.684 782.779 116.448V116.448ZM756.103 195.487C754.173 198.601 751.479 201.17 748.276 202.952C745.073 204.734 741.469 205.67 737.803 205.67C734.138 205.67 730.533 204.734 727.33 202.952C724.128 201.17 721.433 198.601 719.503 195.487C715.482 188.702 713.47 179.503 713.469 167.89C713.468 156.276 715.479 147.078 719.503 140.294C721.434 137.181 724.128 134.613 727.331 132.831C730.533 131.05 734.138 130.115 737.803 130.115C741.468 130.115 745.073 131.05 748.275 132.831C751.478 134.613 754.172 137.181 756.103 140.294C760.209 147.086 762.264 156.285 762.269 167.89C762.274 179.494 760.218 188.693 756.103 195.487Z" fill="white"/>
<path d="M106.598 237.928L105.949 237.765C102.711 237.291 99.6893 235.86 97.2723 233.655C95.3752 231.296 93.6338 228.815 92.0591 226.229L58.8322 173.468C58.1467 173.486 57.7499 173.486 57.4613 173.486C57.0283 173.504 56.774 173.504 56.2869 173.486V226.337C56.2869 226.409 56.2689 226.499 56.2689 226.571C56.2293 228.28 55.7464 229.949 54.8673 231.415C53.9883 232.882 52.7433 234.094 51.2542 234.935C47.2514 237.207 42.813 238.608 38.2303 239.045C29.7879 240.283 21.1867 239.904 12.8862 237.928C9.65816 237.241 6.60623 235.897 3.92102 233.98C2.85126 233.235 1.95225 232.271 1.28362 231.152C0.614984 230.033 0.192078 228.785 0.0428055 227.491C0.024767 227.383 0.0247317 227.274 0.00669319 227.148V226.752C-0.00223106 226.638 -0.00223106 226.523 0.00669319 226.409V13.7447C-0.0520874 11.9417 0.384215 10.157 1.2682 8.58414C2.15219 7.01128 3.45018 5.71023 5.02146 4.82205C9.02261 2.55066 13.459 1.15011 18.0398 0.712239C26.4702 -0.52626 35.0597 -0.146959 43.3479 1.82982C46.5713 2.51364 49.6177 3.85778 52.295 5.7774C53.4731 6.5841 54.4435 7.65787 55.1269 8.91099C55.8104 10.1641 56.1875 11.561 56.2274 12.9876V130.521H57.454C57.7408 130.521 58.1395 130.539 58.8249 130.539L92.052 77.7784C93.6314 75.1956 95.3725 72.7151 97.265 70.3519C99.682 68.1475 102.704 66.7162 105.942 66.2421L106.591 66.0798C114.891 64.0999 123.494 63.7267 131.935 64.9803C136.518 65.4082 140.957 66.8028 144.961 69.0721L145.123 69.1802C147.234 70.4781 152.88 73.9209 149.579 79.4746L104.933 152.007L149.561 224.506C152.88 230.112 147.252 233.555 145.123 234.852L144.961 234.943C140.958 237.217 136.519 238.618 131.935 239.052C128.581 239.512 125.201 239.747 121.816 239.755C116.688 239.763 111.578 239.149 106.598 237.928Z" fill="white"/>
<path d="M336.21 212.747C332.105 220.481 325.967 226.95 318.456 231.457C310.945 235.964 302.346 238.339 293.585 238.325C280.722 238.223 268.416 233.066 259.328 223.968C250.241 214.871 245.103 202.564 245.025 189.71V107.532C244.969 105.984 245.336 104.45 246.086 103.094C246.836 101.738 247.941 100.611 249.282 99.835C252.545 97.9517 256.174 96.7899 259.925 96.4282C266.751 95.4161 273.709 95.7282 280.417 97.3475C283.074 97.9353 285.585 99.0576 287.794 100.646C288.801 101.364 289.626 102.307 290.205 103.398C290.785 104.49 291.102 105.702 291.132 106.937V182.77C291.16 185.677 292.343 188.453 294.42 190.488C296.497 192.523 299.298 193.65 302.207 193.622C305.116 193.593 307.894 192.411 309.931 190.335C311.967 188.26 313.095 185.461 313.066 182.554V107.532C313.018 105.983 313.39 104.45 314.143 103.095C314.895 101.74 316.001 100.613 317.342 99.835C320.604 97.9468 324.233 96.779 327.984 96.4101C334.81 95.3892 341.769 95.7014 348.476 97.3294C351.138 97.9053 353.65 99.0287 355.854 100.628C356.864 101.344 357.693 102.285 358.276 103.377C358.858 104.469 359.178 105.682 359.209 106.919L359.281 182.554C359.269 185.499 360.422 188.33 362.49 190.429C363.503 191.458 364.71 192.275 366.042 192.832C367.373 193.389 368.803 193.675 370.247 193.674C373.13 193.651 375.89 192.504 377.938 190.476C379.987 188.449 381.163 185.703 381.214 182.823V107.532C381.162 105.982 381.532 104.448 382.285 103.092C383.038 101.736 384.146 100.61 385.489 99.835C388.749 97.9417 392.379 96.7735 396.132 96.4101C402.958 95.3896 409.917 95.7018 416.624 97.3294C419.285 97.9086 421.796 99.0317 424.002 100.628C424.998 101.34 425.818 102.271 426.396 103.349C426.975 104.428 427.297 105.625 427.339 106.849V188.488C427.342 188.596 427.336 188.704 427.321 188.811C427.336 188.912 427.342 189.015 427.339 189.117C427.416 202.07 422.349 214.525 413.249 223.75C404.149 232.976 391.759 238.218 378.797 238.327C370.041 238.337 361.449 235.961 353.944 231.454C346.44 226.946 340.308 220.478 336.21 212.747Z" fill="white"/>
<path d="M166.707 205.839V108.069C165.418 98.3991 178.525 94.961 191.418 95.1759C211.187 95.1759 214.84 103.771 214.196 108.069C213.981 135.215 213.508 190.755 213.336 195.74C213.766 202.401 215.915 202.616 220.427 201.971C226.272 201.112 227.876 204.192 227.948 205.839C228.807 211.283 230.655 223.158 231.171 227.112C231.687 231.066 230.383 232.914 229.667 233.344C224.367 235.994 210.843 240.994 199.154 239.79C171.306 237.04 165.919 216.01 166.707 205.839Z" fill="white"/>
<path d="M447.855 205.839V108.069C446.565 98.3991 459.673 94.961 472.566 95.1759C492.335 95.1759 495.988 103.771 495.343 108.069C495.128 135.215 494.655 190.755 494.484 195.74C494.913 202.401 497.062 202.616 501.575 201.971C507.419 201.112 509.024 204.192 509.095 205.839C509.955 211.283 511.803 223.158 512.319 227.112C512.834 231.066 511.531 232.914 510.814 233.344C505.514 235.994 491.991 240.994 480.301 239.79C452.453 237.04 447.067 216.01 447.855 205.839Z" fill="white"/>
<path d="M451.535 64.5205H451.356C450.393 64.4983 449.444 64.287 448.563 63.8985C447.683 63.5099 446.889 62.952 446.224 62.2563C445.559 61.5607 445.037 60.7409 444.69 59.844C444.342 58.9472 444.176 57.9906 444.198 57.0291C444.359 49.5862 447.407 42.4968 452.701 37.2587C455.276 34.6422 458.359 32.5798 461.761 31.1984C465.164 29.8171 468.814 29.1462 472.486 29.2267C473.448 29.2504 474.396 29.4631 475.276 29.8529C476.156 30.2428 476.95 30.8019 477.614 31.4986C478.277 32.1952 478.798 33.0159 479.144 33.9133C479.491 34.8107 479.656 35.7673 479.632 36.7289C479.609 37.6904 479.395 38.6379 479.005 39.5172C478.615 40.3965 478.055 41.1904 477.358 41.8535C476.661 42.5167 475.841 43.0361 474.943 43.3821C474.045 43.7282 473.087 43.8943 472.124 43.8706C470.431 43.8484 468.751 44.1719 467.187 44.8212C465.623 45.4705 464.207 46.4321 463.028 47.6469C460.425 50.2234 458.925 53.7097 458.846 57.3699C458.801 59.2791 458.011 61.095 456.646 62.4308C455.28 63.7666 453.446 64.5163 451.535 64.5205Z" fill="#0082F5"/>
<path d="M492.818 65.3294H492.622C490.679 65.2779 488.836 64.4575 487.498 63.0482C486.16 61.639 485.437 59.7565 485.488 57.8146C485.54 56.0335 485.236 54.2599 484.596 52.5967C483.957 50.9334 482.993 49.4138 481.76 48.1259C480.517 46.8155 479.027 45.7648 477.374 45.0348C475.721 44.3049 473.94 43.9102 472.133 43.8737C470.19 43.8259 468.346 43.0085 467.005 41.6016C465.665 40.1947 464.939 38.3134 464.987 36.3715C465.034 34.4296 465.853 32.5862 467.261 31.2468C468.669 29.9075 470.551 29.182 472.494 29.2298C476.216 29.3123 479.884 30.1279 483.289 31.6297C486.695 33.1315 489.77 35.2901 492.339 37.9818C494.908 40.6734 496.919 43.8452 498.259 47.3153C499.599 50.7854 500.241 54.4856 500.148 58.2039C500.096 60.1115 499.3 61.9236 497.932 63.2544C496.563 64.5852 494.728 65.3296 492.818 65.3294Z" fill="#0082F5"/>
<path d="M171.1 64.5135H170.919C169.956 64.4913 169.007 64.2798 168.127 63.8912C167.246 63.5026 166.45 62.9445 165.786 62.2487C165.121 61.5528 164.601 60.733 164.253 59.8359C163.905 58.9389 163.737 57.9821 163.76 57.0203C163.921 49.5772 166.97 42.4879 172.265 37.25C174.842 34.637 177.926 32.5769 181.328 31.1958C184.73 29.8148 188.378 29.1417 192.049 29.2177C193.011 29.2414 193.959 29.4543 194.839 29.8442C195.719 30.234 196.515 30.7932 197.179 31.4898C197.842 32.1865 198.361 33.0069 198.708 33.9043C199.054 34.8017 199.219 35.7584 199.196 36.7199C199.172 37.6814 198.96 38.6289 198.57 39.5082C198.18 40.3875 197.62 41.1814 196.923 41.8446C196.226 42.5077 195.404 43.0273 194.506 43.3734C193.608 43.7195 192.652 43.8853 191.69 43.8617C189.996 43.8399 188.315 44.1636 186.75 44.8129C185.186 45.4622 183.769 46.4234 182.589 47.6379C179.986 50.2142 178.487 53.7005 178.407 57.361C178.363 59.2698 177.574 61.0858 176.209 62.4218C174.844 63.7579 173.011 64.5084 171.1 64.5135Z" fill="#0082F5"/>
<path d="M212.389 65.322H212.192C210.249 65.2701 208.407 64.4494 207.069 63.0403C205.731 61.6311 205.007 59.7488 205.058 57.8071C205.11 56.0259 204.81 54.252 204.17 52.5887C203.53 50.9253 202.565 49.4057 201.332 48.1184C200.089 46.8078 198.598 45.7569 196.945 45.0267C195.293 44.2964 193.513 43.9013 191.707 43.8644C189.763 43.8166 187.919 42.9995 186.579 41.5925C185.915 40.8959 185.394 40.0755 185.048 39.1781C184.701 38.2807 184.536 37.3238 184.56 36.3622C184.584 35.4007 184.795 34.4532 185.185 33.5739C185.575 32.6946 186.135 31.9007 186.832 31.2376C188.24 29.8982 190.124 29.1727 192.068 29.2205C195.789 29.303 199.457 30.1186 202.863 31.6204C206.268 33.1223 209.343 35.2808 211.912 37.9725C214.481 40.6641 216.493 43.8359 217.832 47.306C219.172 50.7761 219.813 54.4765 219.719 58.1948C219.667 60.1029 218.872 61.9153 217.503 63.2464C216.134 64.5775 214.299 65.3223 212.389 65.322V65.322Z" fill="#0082F5"/>
<path d="M171.201 343H181.97V300.109H191.522V291.4H181.97V287.747C181.97 281.848 184.218 279.6 190.773 279.6V270.703C177.288 270.703 171.201 275.854 171.201 287.747V291.4H165.114V300.109H171.201V343ZM250.149 317.153C250.149 300.952 238.537 290.557 223.834 290.557C209.131 290.557 197.519 300.952 197.519 317.153C197.519 333.354 208.663 343.843 223.366 343.843C238.162 343.843 250.149 333.354 250.149 317.153ZM208.382 317.153C208.382 305.447 215.593 299.828 223.647 299.828C231.607 299.828 239.192 305.447 239.192 317.153C239.192 328.859 231.326 334.572 223.366 334.572C215.312 334.572 208.382 328.859 208.382 317.153ZM271.379 315.842C271.379 304.885 276.249 301.607 284.115 301.607H286.831V290.557C279.526 290.557 274.376 293.741 271.379 298.892V291.4H260.703V343H271.379V315.842ZM357.681 324.364C357.681 330.638 353.279 334.291 346.069 334.291H331.647V313.969H345.694C352.811 313.969 357.681 317.902 357.681 324.364ZM355.995 295.989C355.995 301.982 351.781 305.26 344.851 305.26H331.647V286.624H344.851C351.781 286.624 355.995 290.089 355.995 295.989ZM368.357 325.488C368.357 317.715 362.738 310.785 355.808 309.568C362.082 307.32 366.859 302.544 366.859 294.677C366.859 285.5 359.554 277.914 345.788 277.914H320.971V343H347.005C360.303 343 368.357 335.414 368.357 325.488ZM426.689 291.4H416.013V320.15C416.013 329.608 410.862 334.478 402.996 334.478C395.223 334.478 390.072 329.608 390.072 320.15V291.4H379.49V321.742C379.49 336.164 388.668 343.749 400.748 343.749C406.835 343.749 412.642 341.221 416.013 336.819V343H426.689V291.4ZM479.264 328.578C478.702 309.942 449.578 315.748 449.578 305.353C449.578 301.888 452.575 299.547 458.287 299.547C464.093 299.547 467.558 302.638 467.933 307.133H478.609C478.047 296.831 470.368 290.557 458.662 290.557C446.487 290.557 438.808 297.206 438.808 305.447C438.808 324.364 468.776 318.558 468.776 328.672C468.776 332.23 465.498 334.853 459.317 334.853C453.417 334.853 449.39 331.388 449.016 327.173H437.965C438.434 336.538 447.143 343.843 459.505 343.843C471.679 343.843 479.264 337.287 479.264 328.578ZM490.8 343H501.476V291.4H490.8V343ZM496.232 284.563C499.977 284.563 502.974 281.567 502.974 277.727C502.974 273.888 499.977 270.891 496.232 270.891C492.392 270.891 489.395 273.888 489.395 277.727C489.395 281.567 492.392 284.563 496.232 284.563ZM552.109 343H562.691V312.564C562.691 298.142 553.607 290.557 541.527 290.557C535.346 290.557 529.633 293.085 526.168 297.3V291.4H515.492V343H526.168V314.156C526.168 304.698 531.319 299.828 539.185 299.828C546.958 299.828 552.109 304.698 552.109 314.156V343ZM598.035 299.547C605.995 299.547 612.27 304.604 612.457 312.564H583.894C585.018 304.417 590.824 299.547 598.035 299.547ZM622.197 327.642H610.678C608.711 331.669 605.059 334.853 598.504 334.853C590.637 334.853 584.55 329.702 583.801 321.18H623.227C623.508 319.401 623.601 317.715 623.601 315.936C623.601 300.765 613.206 290.557 598.504 290.557C583.239 290.557 572.75 300.952 572.75 317.153C572.75 333.354 583.707 343.843 598.504 343.843C611.146 343.843 619.293 336.632 622.197 327.642ZM672.597 328.578C672.035 309.942 642.91 315.748 642.91 305.353C642.91 301.888 645.907 299.547 651.62 299.547C657.426 299.547 660.891 302.638 661.265 307.133H671.941C671.379 296.831 663.7 290.557 651.994 290.557C639.82 290.557 632.141 297.206 632.141 305.447C632.141 324.364 662.108 318.558 662.108 328.672C662.108 332.23 658.831 334.853 652.65 334.853C646.75 334.853 642.723 331.388 642.349 327.173H631.298C631.766 336.538 640.476 343.843 652.837 343.843C665.011 343.843 672.597 337.287 672.597 328.578ZM722.622 328.578C722.06 309.942 692.935 315.748 692.935 305.353C692.935 301.888 695.932 299.547 701.645 299.547C707.451 299.547 710.916 302.638 711.291 307.133H721.966C721.405 296.831 713.725 290.557 702.019 290.557C689.845 290.557 682.166 297.206 682.166 305.447C682.166 324.364 712.133 318.558 712.133 328.672C712.133 332.23 708.856 334.853 702.675 334.853C696.775 334.853 692.748 331.388 692.374 327.173H681.323C681.791 336.538 690.501 343.843 702.862 343.843C715.036 343.843 722.622 337.287 722.622 328.578Z" fill="white"/>
</svg>
